<svg width="24" height="24" enable-background="new 0 0 1000 1000" version="1.1" viewBox="0 0 24 24" xml:space="preserve" xmlns="http://www.w3.org/2000/svg">
<g transform="matrix(.02449 0 0 .024924 -.24505 -.46199)" fill="#fff">
<g transform="matrix(.1 0 0 -.1 0 511)" fill="#fff">
<path d="m9227.2 4895.6c-135.1-47.1-31.4 50.3-2541.1-2418.6-929.8-917.3-1702.5-1668-1718.2-1674.2-15.7-6.3-914.1 863.8-1994.6 1931.8-1083.7 1067.9-2022.8 1972.5-2085.6 2010.2-298.4 185.3-709.9-3.1-775.8-358.1-47.2-251.3-56.6-241.9 2091.9-2352.7 1105.6-1083.6 2010.2-1972.6 2010.2-1978.8 0-3.1-857.5-848.1-1906.6-1878.3-1052.2-1030.4-1947.5-1925.6-1997.7-1988.4-109.9-147.6-119.4-402.1-18.9-565.4 128.8-207.3 461.7-292.1 678.5-172.8 56.5 28.3 785.3 725.6 1617.6 1545.4 835.5 819.8 1711.9 1680.5 1947.5 1909.8l427.2 420.9 1994.6-1963.2c1096.2-1080.4 2038.6-1988.2 2095.1-2016.5 113.1-59.7 323.5-69.1 439.7-18.8 260.7 106.8 383.2 408.3 270.1 672.2-25.1 59.7-829.2 873.2-2057.4 2079.4l-2013.3 1978.8 116.2 113.1c932.9 892.1 4014.3 3957.7 4048.8 4020.6 69.1 135.1 56.6 376.9-28.3 499.4-128.8 197.9-383.2 282.7-599.9 204.2z" fill="#fff"/></g></g>
</svg>
